<?xml version="1.0" encoding="utf-8"?>
<!-- Generator: Adobe Illustrator 24.1.0, SVG Export Plug-In . SVG Version: 6.00 Build 0)  -->
<svg version="1.1" id="Layer_1" xmlns:amcharts="http://amcharts.com/ammap"
	 xmlns="http://www.w3.org/2000/svg" xmlns:xlink="http://www.w3.org/1999/xlink" x="0px" y="0px" viewBox="0 0 608.6 643.3"
	 style="enable-background:new 0 0 608.6 643.3;" xml:space="preserve">
<style type="text/css">
	.st0{fill:#CDCDCD;stroke:#8C8C8C;}
</style>
<defs>
	
		<amcharts:ammap  bottomLatitude="41.363289" leftLongitude="-4.778054" projection="mercator" rightLongitude="9.560176" topLatitude="51.089515">
		</amcharts:ammap>
</defs>
<path class="st0" d="M61.2,574.5l-3.3,0.8l-3,2.6l0.1,5.9l2.3,0.4l0.1,3.7l-2.3,1.8l-0.4,2.9v0.5l-2,2.1l-0.1,0.4l-4.5-0.3l-0.5-2.2
	l-3.3-1.9l-5.8-3h-6.4l-3,4.6l0.1,6.6l0.8,2.7l0.1,0.5l0.4,5.1l1.9,9.4l1.9,4.9c0,0,1.3,1.3,1.6,1.9c0.3,0.6,1.8,2.6,1.8,2.6l3,0.4
	l0.8-1.5l0.1,0.2h3l4.5-3.8l2.8-3.9l-0.1-9.1l-1.6-4.8l0.5-3.9l3.1-0.6h0l0.9,1.1l2.6,0.6l2,0.8l0.2-0.1l0.2,0.7l3.9,0.2l6.8-1.3
	l3.8-2.8l6.7-0.3l5.7-1.9l-3.5-2l-0.4-1.9l-4.5-2.9l-8.5-0.1l-2.6-4.4v-4.9l-1.8-3.8L61.2,574.5z"/>
<path class="st0" d="M125.3,572.6c0,0-7.9,0.2-8.8,0.5c-1,0.4-4.8,3-4.8,3l-0.6,0.2l-2.3,3.4l0.8,4.5l6.7,6.6l-1.2,1.8v3.6l2.9,3.9
	l9.2,8.2h8.2h0.8l2.3-0.2h0.4l-0.4,1.6v1.3l2.7,0.7l1.1,0.7c0,0-0.4,3,0.6,3.2l-2.9,0.2l-4-1.2l-2.7-0.5l-3.5,1.4l-1.9,2.3l-0.9,2.7
	l0.7,2.7l1.9,2.7l2.5,1.4c0,0,2.5-0.7,3.5-1.1c1-0.4,1.7-2,1.7-2c0,0,2.9-0.2,4.2-0.4c1.3-0.2,2.7,1.6,2.7,1.6l6.3,0.9l2.9,1.6
	l1.7-0.2v-1.8l1.5-0.9l1.5,0.9l-0.8,2.2l-1.7,1.6l0.8,3.2l2.3,1.3l2.7-0.2l2.7-2.2l0.8-2.8l2.7-2.9l-1.7-3.6l-1.1-3.2l-1.4-4.3
	l-1.4-3c0,0-3.3-3.2-3.3-3.9c0-0.7-3.1-2.3-3.1-2.3l-0.4-2.9c0,0,0.8-0.9,1.7-1.2c1-0.4-0.6-2-0.6-2l-1.9,0.4l-2.9,0.7l-0.7-0.9
	l-1.2-1.3l0.2-1.6l2.1,0.4l1.7-2l-2.5-2l-1.9-0.5l-0.6-1.1l0,0v-1.3l2.1-0.9l1.5,1.3l2.7,1.1l1.4-1.6v-1.8l1.2-1.4l-1-1.1l-2.1-0.9
	l-1.4,1.2l-5.4,0.5l-1.7,1.3l-2.3-0.7l-2.7-4.3l-6.2-6.1l-3.5-1.4L125.3,572.6z"/>
<path class="st0" d="M214.8,568c-0.2,0-0.3,0.1-0.3,0.1l-3.2,4.1l-2.8,3.2l-3.2,3.2l0.5,8.6l-0.2,8l2.8,3.9l2.8,4.9l1.6,3L211,609
	l-1.9,5.2l0.2,7.1l-2.3,4.1l-3.7,3l1.1,1.3l2.8,1.7l2.5,1.5l3.7-1.1l3.9-2.4l8.1-0.2l3,2.1l3.2,0.2l3.2,0.7l4.6-3.7l5.3-9.2l3.9-8
	l3.9-5.8l4.2-5.4l2.3-4.1l-1.8-3.6l-1.4-5.2l-3-1.1l-3.4-2.3l-2.8-2.6l-3.7-2.4l-2.5-0.9l-7.4-5.2l-4.8-1.7l-4.6-0.6
	c0,0-2.1-0.9-3.2-1.3C219.4,568.9,216,568,214.8,568z"/>
<path class="st0" d="M314.8,576.6l-5.1,0.1l-1.8,0.9l-2.1,1.6l-0.4,0.4h-1.5l-3.1,1.2l-1.3,1.2l-4.2,0.6l-0.4,2.2l-1.2,4.6
	c0,0-1.6,1.1-2.1,1.3c-0.5,0.2-3.2,1.6-3.2,1.6l-0.5,4.9l1.2,2.9l3.2,3.7l1.5,1.7l1.2-0.3l-0.7,0.4l0.1,6.7l3.2,3.9l3.3,3l5.7,3.4
	l0.4-0.2l-0.5,0.3l6.8,4.1l5.3,1.9l5.6,1l4.5,1.6l2.9,0.5c0,0,4.4-0.9,5-0.9c0.6,0,5.2-0.9,5.2-0.9l4.7-1.5l3.2-2.9l-0.3-5.1
	l0.6-3.2l1.3-1.8l2.1-2.8l1.1-3.5l-0.3-3.4l-2.2-1.3l-2.9-1.3l-1.3-0.1l-2.1-3c-0.5-0.4-3.1-3.2-3.3-3.7c-0.2-0.4-1.9-4.3-1.9-4.3
	l-0.6-6l-3.3-3.1l-3.8-2.1c0,0-3.1-1.8-3.6-1.9c-0.6-0.1-5.7-1.2-6-1.2c-0.4,0-4.1,0.3-4.2,0.4l-0.5-0.2L314.8,576.6z"/>
<path id="path5886" class="st0" d="M412.2,630.5c-0.6,0-1,0-1.3,0.6c-0.3,0.7-0.9,0-1.3-0.2c-0.7-0.2-1.3,0.1-1.6,0.8
	c-0.1,0.3-0.1,0.5-0.1,0.8c-0.1,0.4-0.5,0.3-0.5-0.1c-0.1-1.2,0.1-2.5-1.4-2.9c-1.5-0.4-2.1,0.3-1.8,1.7c0.1,0.2,0.1,0.5,0.1,0.7
	c-0.2,0-0.4,0-0.5,0.2c-0.2,0.3-0.1,0.7-0.4,1c-0.2,0.3-1,0.6-1.3,0.7c-0.7,0-0.7-1.1-0.9-1.5c-0.3-0.4-1-0.7-1.4-0.3
	c-0.3,0.2-0.2,0.8-0.6,0.6c-0.2-0.5-0.2-1.2-0.3-1.8c-0.2-0.6-1-0.8-1.5-0.8c-0.6,0-1,1.5-1.7,1.9c-0.2,0.1-0.4-1.1-0.1-1.3
	c0.5-0.5,0.3-0.8,0.3-1.6c0-0.8,0.8-3.1-0.9-2.6c-0.5,0.1-0.5,0.6-1,0.8c-0.5,0.2-1.2,0.3-1.7,0.1c-0.4-0.2-0.3-0.7-0.9-0.6
	c-0.7,0.1-0.7-0.3-0.2-0.6c0.5-0.3,1-0.5,1.5-0.7c0.7-0.2,0.8-0.7,1.3-1.1c0.7-0.7,1-2.2,0.6-3.1c-0.1-0.4-0.3-0.9-0.8-1
	c-0.4,0-1.6,1.3-1.6,0.1c0-0.7-0.2-0.7-0.7-1c-0.5-0.4-0.6-1-0.8-1.6c-0.2-0.5-0.1-1.2-0.5-1.5c-0.4-0.2-1.1-0.2-1-0.8
	c0.7-0.1,1.6-0.2,2.3-0.2c0.3,0,0.6,0.2,0.9,0.2c0.3,0,0.6-0.1,0.9-0.2c0.3-0.1,1,0.4,1.1,0.7c0.2,0.3,0,0.7,0.1,1
	c0,0.5,0.2,0.9,0.2,1.4c0,0.6,0.5,0.9,0.8,1.4c0.4,0.6,1,0.5,1.6,0.8c0.6,0.3,1.1,0.5,1.7,0.7c0.7,0.2,1.2,0.8,2,0.9
	c0.4,0,1.2-0.1,1.5-0.4c0.3-0.3,1-1,1-1.3c0-0.3,0-0.6,0-0.9c0.1-0.2,0.3,0,0.3-0.4c-0.1-0.7-0.8-1.1-1-1.7
	c-0.1-0.2,0.1-0.4-0.2-0.6c-0.2-0.1-0.5-0.1-0.5-0.4c-0.1-0.7,0-0.8-0.6-1.2c-0.5-0.3-0.3-1-0.6-1.4c-0.2-0.2-0.4-0.2-0.6-0.3
	c-0.4-0.2-0.6-0.6-1-0.8c-0.9-0.7-2.3-1.3-2.5-2.6c-0.1-0.5-0.1-1-0.8-1c-0.6,0-1.4-0.4-1.8-0.9c-0.2-0.3-0.9-0.5-0.7-1
	c0.1-0.2,0.4-0.2,0.6-0.3c0.3-0.2,0.3-0.3,0.3-0.6c0.4-1,2.8-0.6,2.9-1.1c0.1-0.5-0.4-0.6-0.8-0.6c-0.5-0.1-0.9-0.4-1.5-0.5
	c-0.6-0.1-0.3-0.8-0.1-1.1c0.4-0.6,0.4-1.4,0.4-2.1c0-1.1-1.6-1.8-0.9-3.1c0.3-0.6,1-0.1,1.4-0.6c0.7-0.9-1-0.5-1.3-0.6
	c-0.6-0.1-0.8-0.8-0.7-1.3c0.1-0.5,0.5-0.7,0.8-1.2c0.2-0.3,0.6-1.2,0.5-1.6c-0.2-0.6-0.5-0.9-1.1-0.5c-1.1,0.9-1.8-1.1-2.9-0.6
	c-0.5,0.3-1.1,0.2-1.4-0.4c-0.1-0.3-0.4-0.3-0.6-0.4c-0.2-0.2-0.4-0.5-0.6-0.7c-0.4-0.4-0.7-0.7-1.3-0.8c-0.4,0-1.1,0.6-1.5,0.4
	c-0.2-0.1-0.3-0.5-0.5-0.6c-0.2-0.2-0.5-0.2-0.8-0.4c-0.7-0.3,0.3-1.2,0.5-1.4c0.6-0.7,1.5-1.4,1.8-2.3c0.6-1.4-2-0.8-2.6-1.1
	c-0.5-0.3,1.3-1.6,1.4-2.1c0.1-0.5-0.2-1.1,0.1-1.6c0.3-0.6,0.6-0.3,1.1-0.2c0.5,0.1,1.3,0.2,1.5-0.4c0.1-0.3,0.6-1,0.8-1.2
	c0.3-0.2,0.8-0.8,0.4-1.3c-0.6-0.6-0.3-0.5,0.5-0.6c0.4,0,1.2,0,1.2-0.5c0-0.4,0-1.4,0.4-1.7c0.4-0.3,0.7-0.7,1.1-1
	c0.2-0.1,0.4-0.3,0.6-0.5c0.2-0.3-0.1-0.8,0.4-0.8c0.6-0.1,0.6,0.2,1-0.4c0.2-0.2,1.1-1.2,1.1-0.4c0,0.4-1,0.7-0.5,1.1
	c0.6,0.4-0.1,0.5-0.4,0.6c-0.9,0.2-3.1,1-1.4,1.9c0.5,0.3,1.1,0.4,1.6,0.5c0.9,0.2-0.7,0.8,0.4,1c0.3,0.1,0.4,0,0.6,0.3
	c0.1,0.1,0.2,0.4,0.4,0.5c0.5,0.3,0.3,0.8,0.6,1.3c0.2,0.4,0.9,0.8,1.3,1c0.3,0.2,0.7,0.4,1,0.4c0.3,0,0.8-0.1,1,0.3
	c0.2,0.4-1.7,1-1.1,1.9c0.3,0.5,0.9,0.7,1.2,1.3c0.2,0.5-0.1,1.5,0.6,1.4c0.3,0,0.6-0.2,0.8,0c0.2,0.1,0.2,0.3,0.5,0.3
	c0.7,0,0.7-0.4,1.2,0.2c1.3,1.4,2-0.7,3-1.1c0.6-0.2,0.7-0.1,1.1,0.3c0.2,0.3,0.6,1,1.1,0.8c0.6-0.3,1.1,0.1,1.6,0
	c0.6-0.1,0.9,0,1.4,0.3c0.4,0.3,1.1-0.1,1.6,0.1c0.2,0.1,0.5,0.1,0.7,0.3c0.1,0.1,0,0.3,0.3,0.3c0.3,0,0.4-0.5,0.6,0.1
	c0.1,0.2,0.2,0.2,0.1,0.4c-0.2,0.2,0.4,0.6,0.5,0.8c0.4,0.5,1,0.5,1.6,0.5c0.4,0,0.9,0.7,1.1,1c0.2,0.3,0.4,0.3,0.6,0.5
	c0.3,0.3,0.7,0.8,0.8,1.2c0.4,1-1.9,2.1-1,3.3c0.3,0.5,0.7,0.6,0.8,1.3c0.1,0.9-0.8,0.1-1.2,0.3c-0.8,0.5-2.3,1-2.5,2
	c-0.2,1-0.7,0.9-1.3,1.5c-0.4,0.3-1.3,0.7-1.3,1.4c0,0.7,0,0.9-0.7,1.3c-0.5,0.4-0.9,0.3-1.2,1c-0.1,0.2,0.1,0.4,0.2,0.5
	c0.3,0.3,0,0.3-0.1,0.6c-0.2,0.6-0.4,1.2,0,1.7c0.2,0.3,0.2,0.5,0.3,0.7c0.1,0.2-0.1,0.4,0.1,0.6c0.2,0.2,0.3,0.4,0.5,0.6
	c0.2,0.1,0.6,0.1,0.7,0.3c0.3,0.7,0,0.9,0.9,1.1c0.3,0,1.4,0.5,0.6,0.6c-0.2,0.6,0.3,1.4,0.9,1.4c0.2,0,0.4-0.1,0.6,0
	c0.3,0.1-0.3,0.5-0.3,0.6c-0.2,0.6,0,1.4-0.6,1.9c-0.5,0.5-1.2,0.8-1.8,1.1c-0.5,0.3-1,0.8-1.3,1.2c-0.3,0.5,0,1.8,0.1,2.4
	c0,0.3,1.1,1.5-0.1,1c-1-0.4-1.5-0.1-1.9,0.8c-0.3,0.5-1,0.4-1.4,0.8c-0.4,0.3-0.2,1.4,0,1.9c0.4,0.8,0.1,0.9-0.7,0.8
	c-0.8,0-1,1.2-0.8,1.8c0.3,0.7,1,0.9,1.1,1.7c0,0.7,0.8,1,1.4,1.3c0.4,0.2,0.8,0.3,1.1,0.6c0.2,0.2,0.4,0.5,0.7,0.5
	c0.3,0,0.7-0.1,1.1,0.1C412.6,629.8,412.3,630,412.2,630.5"/>
<g>
	<path id="FR-GES" class="st0" d="M531.1,139.9l-2.8,1.5l-3-2l-2.4,1.4l-4.2-0.7l-4.4-2.7l-1.4-4.5l-2.4,0.3l0.4-1.2l-3.3,0.8
		l-2.9,3.6l-5.7-0.4l-2.4-2.2l-2,2.6l-0.7-4.9l-4-2l-4.2,0.6l-0.1,3.8l-4-0.7l-2.9-7.3l-4.3-4.3l1.4-1.2l-2.4-4.2l-4.8-2.8l-3.8,0.6
		l-3.9-3l-8.2,4.2l-2.6-0.3l-0.6-2.7l-4-0.3l-4-4.1l-1.1,1.5l-4.3-0.7l-1.3,2.7l-2.3-1.4l-3.5,2l-1.8-6.3l-3.4-2.2l-1.4,1.3l0.7-2.7
		l-2.6-2.7l-4.3,0.2l-3-4.5l-4.1-2.4l-6,0.5l-0.2-4.7l1.7-2.8l-4.1-3.8l2.1-4.5l-0.9-1.7l3.2-4.6l-2.9-2l-5.5,5.4l0,5.8l-10.2,3.7
		l-5.7-2l-3.2,0.7l0,0l0.9,5.8l-2,5.7l1.8,1.5l-5.1,5.1l-0.5,2.9l-3.8,0.7l2.3,3.3l-1.7,13.5l-4.7-3l-2.8,1.7l-0.2,2.2l-3-0.7
		l-5.5,2.7l0.4,6.4l3.9,3.4l-5.2,0.5l-0.9,1.9l1.5,2.7l-2.2,2.5l2.7-0.4l1.1,1.8l-8,10.2l0,0l0.1,2.4l-3.5,0.3l1.7,1.1l-2,2l3.1,1.3
		l-0.7,6.4l3.5-0.7l1,1.9l-3.9,2.9l0.7,1.8l-3.1,0.9l1.3,2.3l-2.3,0.7l1.3,5.6l0,0l0.6,2l3.1-0.5l4.8,6.1l-1.7,5.2l2.1-0.3l1.5,3.1
		l3.4-1.6l-0.4,2.1l2.1,0.9l3.3,6.4l-0.8,2l1.8-1.1l0.8,1.3l-0.8,3.1l6.2,0.3l0.6-1.3l2.1,1.2l2.4-2.1l1.5,1.1l1-1.9l0.8,2.6l2,0.3
		l0.9-2.2l10-0.4l-0.8-2.4l1.8-1.4l8.9,1.4l-0.3,2.7l3.3,1.4l-1.4,2l3-0.8l3.7,7l-3.2,2.5l1.8,0.3l0.4,4.7l2.5-1.5l3.7,3.9l2.5-2.1
		l-0.2,1.7l3.6,1.8l-0.2,2.8l2.8-2.2l1.4,1.3l2.7-5.3l4.4,0.2l1.7-2.1l1.2,2.2l3.9-0.8l0-8.4l2.1,0.1l0.8-2.4l2.8,0.4l4.4-7.7
		l0.7,2.6l3.7-4.2l4-1l2.9,5.4l0,0l0,0l0,0l7.7-1.8l3.7,4.6l5.3-3.7l10.7,10l6.2,2.4l1.4,3.7l-1.8,4.9l3.4,0.6l1.9,5.5l0,0l2.9,0.5
		l-1.3,3.1l3,1.4l5.9-0.7l2.9-2.4l-1-1.5l2.4,0.8l1.7-2.8l-1.3-0.7l3.5-2.2l-3-7.5l1.5-2.2l0.4-9l2.7-5.7l-2.2-3.9l0.3-5.4l4.8-11.3
		l2.1-1.6l-0.5-4.2l4.4-15.4l5.5-7.3l4.9-2.8l5.7-10.8l-1.1,0.4L531.1,139.9z"/>
	<path id="FR-NAQ" class="st0" d="M149.3,328l3.1,6.3l-1.8,5.1l-1.6-4.8l-4.9-4.3l-1.1-5.6L149.3,328z M146.8,318.7l3-1L145,315
		l-2.5,0.4l0.5-1.7l-3.6,1.1l0.1-2.7l-2.6,0.7l1.1,2.6L146.8,318.7z M296.3,302.3l0.3,2.3l1.9,0.6l-1.3,1.7l7.5,3.8l5,14.6l0.4,3.8
		l-2,0.9l-0.3,2.6l-7,5.2l5.6,6.8l-0.1,4l-2.5,2.7l2.3,2.5l-1.3,8l1.7,1.6l-2,1.3l-5.5-2.5l0.5,4.4l-6.9,6.8l1.6,3.3l-2.2,1.7
		l-0.3,3.2l-3.1,1.3l1.8,3.4l-3.4,1.5l0,0l-4.7,1.4l-1.6-1.5l-4.4,3.2l-7.1-6.4l-4-0.8l-5.2,2.5l1.3,7.4l-5.9,4.9l0.7,3.2l-7,4.1
		l-1.8,5.6l-5.1,1.7l3.3,10.3l-5,1.2l-1.9-2.1l-1.1,4.1l3.4,2.1l-1.8,4.8l-2.2,0.4l1.7,2.7l-4.4-0.3l0.4,1.9l-5.6,5l-2.9-3.2
		l-12.2,5.2l-2.9-1.8l-3.1,2.8l-1.2-1.7l-3,2.3l0.1,3.8l-3.3-1.9l1.2-1.4l-1.8-1.7l-2.5,3.2l-3.5-0.6l-2.5,2.4l2.2,1.7l-0.3,3.3
		l-1.4,0.1l1.3,4.1l-2.3,1.7l-1.2,5.1l1.7,2l5.9,0l3.2,6.3l-2,0.5l-0.1,3l2.8-2l1.3,5.6l-3.2,2.6l1.2,1.8l-2.3,2.7l0.2,2.6l-2.1-0.2
		l-3.1,3.7l0.5,3.5l-4.5,2.6l-1.1,8.8l0,0l-3.4,2.8l-4.6-1.6l-1.9,2.8l-7.5-6.7l-0.9-4l-7.9,0.8l-7.1-4l-1.2,0.9l-6.9-3.4l1.6-2.8
		l-3,1.4l-0.4,3.7l-3.6-1l-1.4-2.4l3.8-5.7l-0.3-3.9l-6.1-2l-3,2.4l-0.7-3.1l-4.4,0.6l-2.4-3.1l-0.1-1.3l5-0.8l2.8-2.6l6.4-12.2
		l6.2-32.3l1.7-19.2l2.6-6.7l7.9,1.3l-2.7-3.5l1.5,0l-5.5-4.6l-3.3,9.4l-0.6-1l4.3-49.4l4-5.8l-0.2,3.7l10.9,9.8l4.8,15.2l4.4,4.2
		l-3.5-6.4l-4.8-19.8l-7.8-5.9l-2.2-3.7l-8.8-4.1l-0.1-5.5l4.3-1l-1.9-3l2.6-0.3l1.7-2.9l-0.8-5.1l1.8-0.6l-3.2-7.4l-1.9-0.6l1-1.2
		l-3.7-0.4l5.3-5.8l-0.2-3.4l0,0l7.7-3.3l-1.3,2.9l1.2,0.7l5.5-1.9l3.2,2.4l7.6-5l-2.8-1.7l-1.5,1l1.1-13.5l-1.8-0.9l0.9-1.6
		l-3.4-5.6l0.9-3.3l-5.5-4.5l1-2.2l-3.7-3.3l4.5-1.9l7.8,0.5l2.3-2.2l-0.5-1.9l2.6-1.2l1.5,0.1l-0.9,1.7l3.5-2.3l8.8-1l1.7,0.3
		l-1.5,2l2.1,1l1.8-2.8l2.1,0.9l1.2-4.5l2.6-0.2l0,0l1.1,2.7l4.2,0.2l-0.1,3.4l5.2,0.5l0.8,7.3l11.4-1.6l-1.3-3l5.1,2l0.5,4.3
		l8.6,10.7l-0.1,7.6l4.3,2.1l0.2,1.9l3,0l0,0l4.9,6.2l0,0l-0.9,3.4l4.7,0.3l2.1-1.7l2.5,3.2l4.6-4.8l0.8,2l2.7-1.7l0.8,2l2.4-1.8
		l1.8,1.7l2.2-4l2.3,1.9l5.8-1l4.5,2L296.3,302.3z"/>
	<path id="FR-ARA" class="st0" d="M496.4,358.9l-4.1-2.1l0-8l-3.5-0.7l-4.5-4.4l0.5-6.6l5-0.6l4.3-4.6l-4.5-8.4l-2.6,0.7l1.1-4.3
		l-4.2-0.8l2.8-8.5l-3.9-4.5l2.1-4.3l-12.5-1.8l-11.1,5.8l-1.3,2.9l1.7,3.6l2-0.3L463,314l-6.9,5.1l-7.1,0.7l0.9-5.3l6-2.1l-0.9-2
		l2.8-4.9l-4.4-3l0,0l-8.1,9.1l-6,0.2l-0.5-2.9l-2.9-2.1l-4.3,4.6l-2.7,0.3l-0.3-3.6l-1.2,0.5l-0.5-1.9l-0.8,2.2l-1.1-4.3l-3.2-1.8
		l0.6-2l-3.3-0.7l-1.4-3l-6,1.5l-4.8-2.1l-6.7,20.5l-2.2-0.2l0.4-3.2l-2.4-1.5l1.3-1.2l-1.3-1.6l-2.6,2.4l-2.1-1.7l-2.7,1.6
		l-4.1-1.7l-1.4,6.6l-3.8,1.7l-3-2.2l-9.1,1.5l-0.7-2l-3.4-0.7l0-4.2l4.7-2.5l-0.2-8.1l-2.1-1.9l-3.4,0.3l-1.2-2.6l-4-0.4l-0.2-3.8
		l-4.6-9.2l-1.5-0.4l-1.2,4.4l-4.3,2.3l-1.5-3.8l-3.1,1.8l-3.2-2l-2.9,2.5l-7-7.1l0,0l-4.6,0.1l-3.1,4.1l-3.5,0.5l-1.9-1.7l-3.8,3.3
		l0.2,1.9l-2.4,0l1.9,6.4l-3.2,2.1l-7.3,0.1l-3.3,5.8l0,0l0.3,2.3l1.9,0.6l-1.3,1.7l7.5,3.8l5,14.6l0.4,3.8l-2,0.9l-0.3,2.6l-7,5.2
		l5.6,6.8l-0.1,4l-2.5,2.7l2.3,2.5l-1.3,8l1.7,1.6l-2,1.3l-5.5-2.5l0.5,4.4l-6.9,6.8l1.6,3.3l-2.2,1.7l-0.3,3.2l-3.1,1.3l1.8,3.4
		l-3.4,1.5l0,0l1.2,6l3.3,4.9l-1.7,5.4l3.2,4.6l0.3-1.9l3.3-1.1l2.4,1.6l5.5-0.6l3.2-4l1.8-7.3l5.5-5.6l1.5,5l3.6-1.1l5.1,13.4
		l5-14.1l1.2-1l2.5,2.4l2.1-4.3l1.8,0.5l3.5-2.8l4.8,9.9l4.2-1.1l0.2-2.9l2.5,0l0.5,2.8l3.2-0.5l5.5,5.7l1.1,8.5l6.9,11l-0.9,5
		l3.4-1l5.3,4.1l2.9-4.2l2.7-0.5l0.1,3.2l1.8,0.4l0.6-3.2l2.2-0.3l6,4.2l0,0l0-3.4l5.7,1l1.3,5l10-4.6l2,1.7l2.4-2.2l-0.6,4.8l8.4,1
		l1.2,3.4l3,2.1l3.6-0.8l2.5-3.4l1.7,1.1l1.8-1.4l0-4.1l-3.3-2.3l0.9-1.6l-5.6-0.2l-2.6-2.1l-0.5-2.9l3.3-0.7l-1.7-3.6l6.5,1.6
		l2.1-1.8L434,413l1.9-6.3l6.1-0.1l1.7-2.2l-1.3-0.9l1.2-3.1l5.2-0.1l1.2-1.2l-1.3-1.4l2.8-1.8l1.6,1.1l3.2-2.8l4.7,0.7l1.8-1.3
		l2.7,1.1l-1.3-8.4l-5-1l1.7-6.1l3.6-0.2l1.3,3.1l3.6,1.1l2.5-3.4l5,0l0,0l5.7-2.9l5.2,1.3l0-1.9l2.2-0.1l2.3-3l3.3,0.2l2.2-2.3
		l-1-4.2l2.7-4.8L497,361L496.4,358.9z"/>
	<path id="FR-BFC" class="st0" d="M328.2,183.7l-1.3,3.4l1.3,3.4l-4.6,5.4l0,0l3.8,1.8l0.8,3.7l3.1,2.7l0.1,3.5l-4.9,4.1l0.7,7.4
		l-7.2,1.8l-0.2,2.5l3.3,2.2l2.1,6.9l-5.3,1.9l3.4,6.1l-2.6,6.1l4.7,4.7l1.5,12l2.5,2.5l-1.9,13.9l0,0l7,7.1l2.9-2.5l3.2,2l3.1-1.8
		l1.5,3.8l4.3-2.3l1.2-4.4l1.5,0.4l4.6,9.2l0.2,3.8l4,0.4l1.2,2.6l3.4-0.3l2.1,1.9l0.2,8.1l-4.7,2.5l0,4.2l3.4,0.7l0.7,2l9.1-1.5
		l3,2.2l3.8-1.7l1.4-6.6l4.1,1.7l2.7-1.6l2.1,1.7l2.6-2.4l1.3,1.6L396,312l2.4,1.5l-0.4,3.2l2.2,0.2l6.7-20.5l4.8,2.1l6-1.5l1.4,3
		l3.3,0.7l-0.6,2l3.2,1.8l1.1,4.3l0.8-2.2l0.5,1.9l1.2-0.5l0.3,3.6l2.7-0.3l4.3-4.6l2.9,2.1l0.5,2.9l6-0.2l8.1-9.1l0,0l3.8-7.8
		l-1.9-1.9l14.2-12l0.5-6.9l-1.3-2.4l11.9-7.5l-0.7-1.9l10.5-9.8l-0.5-2.7l4.7-2.9l-1.6-2.4l-5.7,1.2l2.5-4.9l2.6-1.3l-0.8-2.5
		l6.2-0.6l0,0l-1.9-5.5l-3.4-0.6l1.8-4.9l-1.4-3.7l-6.2-2.4l-10.7-10l-5.3,3.7l-3.7-4.6l-7.7,1.8l-2.9-5.4l-4,1l-3.7,4.2l-0.7-2.6
		l-4.4,7.7l-2.8-0.4l-0.8,2.4l-2.1-0.1l0,8.4l-3.9,0.8l-1.2-2.2l-1.7,2.1l-4.4-0.2l-2.7,5.3l-1.4-1.3l-2.8,2.2l0.2-2.8l-3.6-1.8
		l0.2-1.7l-2.5,2.1l-3.7-3.9l-2.5,1.5l-0.4-4.7l-1.8-0.3l3.2-2.5l-3.7-7l-3,0.8l1.4-2l-3.3-1.4l0.3-2.7l-8.9-1.4l-1.8,1.4l0.8,2.4
		l-10,0.4l-0.9,2.2l-2-0.3l-0.8-2.6l-1,1.9l-1.5-1.1l-2.4,2.1l-2.1-1.2l-0.6,1.3l-6.2-0.3l0.8-3.1l-0.8-1.3l-1.8,1.1l0.8-2l-3.3-6.4
		l-2.1-0.9l0.4-2.1l-3.4,1.6l-1.5-3.1l-2.1,0.3l1.7-5.2l-4.8-6.1l-3.1,0.5l-0.6-2L328.2,183.7z"/>
	<path id="FR-BRE" class="st0" d="M66.8,243.7l7.7,4.5l-0.6,1.7l-6.8-1L66.8,243.7z M67.8,151.9l0.2,2.2l5.6-2.3v3l3.1-0.2l-1.3,2.7
		l4.8,1.5l-0.7,2.2l5.3,4.5l-0.2,3.4l4.5,2.5l-1.1,2l1.2-0.5h1.2l2.3,0.7l3-4.9l3.4-1.4l-0.6-1.4l2.1-0.5l0.7,1.5l4.2-3.7l1.4,1.3
		l-2.2,3l3.9-1.5l2.7,4.3l1.2-2.6l-0.1-1l4.3-0.3l3.1,5.9l-0.5,3l1.8-2.6l-1.9-3l1.6,0.9l-0.6-1.3l-2.5-3l1.3-2.8l6.1-1.8l-1,4.6
		l3.8,2.1l8.5-1.9l0,0l3.5,9.1l2.8,1.8l2.8-0.5l4.2-4.7l7.6,2.2l0,0l0,0l0,0l1,11.2l-2.3,3.9l3.5,16.3l-5.8,2.4l-3.8,11.6l-9.6-3.6
		l0.2,2l-6.2,2.4l-1.6,3.3l-8.3,0.1l-3.9,2.3l-0.8-1.4l-4.5,2.7l-0.7,7.2l-2.5,0.7l-0.3,2l-5.6-1.6l-0.8,3.4l-4.4-1l-1.4,1.8l0,0
		l-1.6-0.1l-0.3-2.6l2.5-0.4l-2.8-1.6l-12.7,2.3l-4-4.1l-5.4-1.6l-3.4,0.6l0.4,3.3l1.4,2.9l-2.1-0.3l-0.8-7.5l-5.7-5.5l-3.1,0
		l-0.2-1.5l-3.6,0.9l-3.1-4.2l-8.3-2.5l-5.3,0.9l-3.8-6.9l-1.8,1.2l0.6,1.8l-7.1-0.1l-1.9,3.7l-7.3,0l0.4-5.6l-2.6-4.6l-3.7-2.6
		L5,203.6L6,202l12.4-2.6l4.6,1.1l1.6-2.5l-2-4.6l-6.1-2.2l-3.9,4.3l0.6-4.9l-3.2-0.3l-0.3-1.6l2.4-0.2l-0.1-3l1.6-0.6l-0.1,3.6
		l11.4,0.2l0.5-1.2l-3.7-1l1.4-1l-0.6-2l-2.3,2.2l-3.5,0l2.4-3.5l-1-0.8l-7.6,3.6l-3.1-1.1l-3.8,1.6L3.4,174l1.9-2.5l5-1.3l2.8-3.8
		l5.8,0l-1.5-1.1l3.8-1.4l2.1,0.8l0,1.9l4.2-1.1l-1.1-0.4l1.5-1.8l5.3,0.7l2.1-3.2l1.5,0l-0.1,3.3l1.7,0.7l3.2-0.7l1.3-2.8l7.5,1.5
		l0.9,0.6l1.7,1l1.4-4.7l-1.6-3.8l1.3,0.9l2.1-3l4.4,2.5L67.8,151.9z"/>
	<path id="FR-CVL" class="st0" d="M264,147.3l4,6.4l0.1,11l7.7,7l0.6,5.4l2.8,1.6l2.5-1l-0.1,3.2l2.1,0.3l0.4,2.4l-0.7,4.7l7.9-0.7
		l1.6-2.8l1.7,2.8l3.4-2.2l3.2,1.1l0.8,3.5l3.9,2.1l0,3.6l-3.1,2.7l10.9,0l2-1.4l-0.7-1.3l2.6-0.1l0.8,2.4l4.9-2.1l0,0l3.8,1.8
		l0.8,3.7l3.1,2.7l0.1,3.5l-4.9,4.1l0.7,7.4l-7.2,1.8l-0.2,2.5l3.3,2.2l2.1,6.9l-5.3,1.9l3.4,6.1l-2.6,6.1l4.7,4.7l1.5,12l2.5,2.5
		l-1.9,13.9l0,0l-4.6,0.1l-3.1,4.1l-3.5,0.5l-1.9-1.7l-3.8,3.3l0.2,1.9l-2.4,0l1.9,6.4l-3.2,2.1l-7.3,0.1l-3.3,5.8l0,0l-8,0.6
		l-4.6-2l-5.8,1l-2.3-1.9l-2.2,4l-1.8-1.7l-2.4,1.8l-0.8-2l-2.7,1.7l-0.8-2l-4.6,4.8l-2.5-3.2l-2.1,1.7l-4.7-0.3l0.9-3.4l0,0
		l-4.9-6.2l0,0l-3,0l-0.2-1.9l-4.3-2.1l0.1-7.6l-8.6-10.7l-0.5-4.3l-5.1-2l1.3,3l-11.4,1.6l-0.8-7.3l-5.2-0.5l0.1-3.4L205,260
		l-1.1-2.7l0,0l0.9-7.2l4.4-6.1l-1.2-1.1l2.9-6.2l-1.1-2.4l1.6-4l6.3,2.1l0-4.5l2.7,1.5l6.1-3.2l0.9-1.3l-1.4-1.5l4.8-3l2.8-4
		l-0.3-4.2l2.1,0.8l1.6-3.2l-0.3-5.5l-1.9-0.5l-0.1-2.1l2-0.1l-1.2-1.7l1.6-2.1l2.7-0.3l-4.9-3.4l0,0l1.4-1.2l-2.5-6.8l6-3.1
		l2.6-4.2l-1.7-2.3l1.3-2.9l-5-5.4l0,0l-1.6-3.4l2.3-1.5l0,0l0.5-1.7l6.6-0.8l1.2-1.9l2.2,0.7l0.3-2.7l8.8,1.8l1.7-1.3l-0.4-3.3
		l4.1-2.4l-0.5-3.3L264,147.3z"/>
	<path id="FR-COR" class="st0" d="M566,580.2l1.2-2.7l4.6-2.6l-5.6-0.7L566,572l-4.8,0l3-2l-0.8-1.4l2.5-0.5l1.3-4.7l-2.3-2.1
		l-5.8,2.2l-0.6-4l2.3-0.2l0.5-2.4l3.6-2.1l-2-3.5l-5-0.9l-0.3-5.6l-1.4-0.5l6.4-1.6l-3.8-2.2l0.4-2.5l-2.6,0.9l-0.3-2.3l4.6-2.3
		l1-3l-1.3-0.5l3-2.6l0.2-3.3l2.6,1.7l0.6-2.7l8.8-2.2l4.6-5.1l4-0.2l3.2,3.3l1.9-3.3l-1.5-5.5l2.2-5.1l-0.9-4l3.4-1l1.7,1.4
		l1.2,10.1l-2,7.4l3.6,7.1l1.1,19.7l-0.4,5.1l-5.7,8.4l-1.1,17.1l-4.5,2.7l0.4,1.2l1.3-1.7l2.1,0.6l-4,3.5l0.2,3.7l-2.9,2.8l2.1,0
		l-3.3,2.7l-3.6-1.6l1.1-2.4l-2.1-0.4l0.4-2l-1.7,1.3l-1.7-1.8l-3.3,0l-3.2-1.6l0.5-1.6l-2.8-0.5L566,580.2z"/>
	<path id="FR-IDF" class="st0" d="M272.4,128.9l2.1,3.6l3.4,0.7l6.9-0.7l3.3-2.2l3.7,3l2-1l0.6,1.8l3.4-2.2l7.3,5.1l2.6-1.2l1.3,2.8
		l2.1-1.8l4.2,3l3.1-2.3l1.8,1.7l4.9-1.3l0.8,1.3l3.3-0.9l0.1-2l2.8,0.7l2.2,3.5l-1,2.4l4,4.6l1.7-0.6l1,2.6l1.6-1.3l0.6,3.6
		l3.2,2.2l1-0.9l0,0l0.1,2.4l-3.5,0.3l1.7,1.1l-2,2l3.1,1.3l-0.7,6.4l3.5-0.7l1,1.9l-3.9,2.9l0.7,1.8l-3.1,0.9l1.3,2.3l-2.3,0.7
		l1.3,5.6l0,0l-15.2,1.9l-1.3,3.4l1.3,3.4l-4.6,5.4l0,0l-4.9,2.1l-0.8-2.4l-2.6,0.1l0.7,1.3l-2,1.4l-10.9,0l3.1-2.7l0-3.6l-3.9-2.1
		l-0.8-3.5l-3.2-1.1l-3.4,2.2l-1.7-2.8l-1.6,2.8l-7.9,0.7l0.7-4.7l-0.4-2.4l-2.1-0.3l0.1-3.2l-2.5,1l-2.8-1.6l-0.6-5.4l-7.7-7
		l-0.1-11l-4-6.4l0,0l0,0l0,0l0,0l0,0l0.7-2.4l-2,0.2l-0.9-4.9l1.7,0.2l0.9-2.2h4.7L272.4,128.9z"/>
	<path id="FR-OCC" class="st0" d="M394.7,428.8l3,4.8l0,6.1l2.7,0.9l2.4,4.4l-8.4,7l1.1,1.3l-1.6,9.1l-5.9-0.7l-2.5,4.2l1.9,0.7
		l-0.4,1.3l-9.1,5.2l-0.4,2.2l0,0l-4-1.5l-1.2-3.8l-5.5,0.4l-13.7,9.3l-5.7,6.6L344,485l-3.2,1l-7.1,5.8l-5.9,13.1l-0.4,13.3
		l0.7,9.1l3.9,1.4l1.5,4.3l-3.8,0.8l-2.2-2.8l-6.8,0.4l-3,2.7l-5.2,0.8l0,3.5l-7.9,0l-2-3l-7.3-2.5l-4.2,0.8l-5.8,4.2l-3.4-5.9
		l-8.5-2.4l0.4-3.4l2.3-1.5l-2.9-0.5l0.4-1.5l-10-2l-2.3,2.8l-3.4-6.5l-7.8,0.6l-3.7-4.5l-6.4,0l-9.1-4.1l-2.6,4.4l1.3,5.2l-10.5,0
		l-2.6-1.9l-2.7,2.8l-4.9-3.6l-9.7,2.5l-4.3-6l-6.3-2.9l0,0l1.1-8.8l4.5-2.6l-0.5-3.5l3.1-3.7l2.1,0.2l-0.2-2.6l2.3-2.7l-1.2-1.8
		l3.2-2.6l-1.3-5.6l-2.8,2l0.1-3l2-0.5l-3.2-6.3l-5.9,0l-1.7-2l1.2-5.1l2.3-1.7l-1.3-4.1l1.4-0.1l0.3-3.3l-2.2-1.7l2.5-2.4l3.5,0.6
		l2.5-3.2l1.8,1.7l-1.2,1.4l3.3,1.9l-0.1-3.8l3-2.3l1.2,1.7l3.1-2.8l2.9,1.8l12.2-5.2l2.9,3.2l5.6-5l-0.4-1.9l4.4,0.3l-1.7-2.7
		l2.2-0.4l1.8-4.8l-3.4-2.1l1.1-4.1l1.9,2.1l5-1.2l-3.3-10.3l5.1-1.7l1.8-5.6l7-4.1l-0.7-3.2l5.9-4.9l-1.3-7.4l5.2-2.5l4,0.8
		l7.1,6.4l4.4-3.2l1.6,1.5l4.7-1.4l0,0l1.2,6l3.3,4.9l-1.7,5.4l3.2,4.6l0.3-1.9l3.3-1.1l2.4,1.6l5.5-0.6l3.2-4l1.8-7.3l5.5-5.6
		l1.5,5l3.6-1.1l5.1,13.4l5-14.1l1.2-1l2.5,2.4l2.1-4.3l1.8,0.5l3.5-2.8l4.8,9.9l4.2-1.1l0.2-2.9l2.5,0l0.5,2.8l3.2-0.5l5.5,5.7
		l1.1,8.5l6.9,11l-0.9,5l3.4-1l5.3,4.1l2.9-4.2l2.7-0.5l0.1,3.2l1.8,0.4l0.6-3.2l2.2-0.3L394.7,428.8z"/>
	<path id="FR-HDF" class="st0" d="M373.4,78.6l3.9-3.2l-1.3-4.1l-3,0l3.3-9l-1.9-1.1l-1,2l-4.7-6.5l-5.1,2.1l-6.4-1.6l-1.6,3
		l-2.1-4.2l0.1-5.6l-2.2-2.6l-4.5,0.6l0.8-2.4l-1.8-0.6l-4.1,2.7l-3.5-2.2l-2.2-8.7l0.9-2.8l-2.9-1.5l-1.7-4.2l-8.2,2.5l-1.9,3.9
		l-4.9-2.3l-2.8-5.5l-3.6-0.1l-1.5-2.4l-0.4-4.6l1.7-1.8l-3.7-9.3l-33.2,9.5l-3.5,3.8l-3.3,1l1.3,4.4l-2.1,5.1l0.6,10.2l0.4,2
		l-1.3,9l2.9,2.2l-2.9,0.4l-0.8,5.1l6.3,6.1l-6.9-1.2l-6,9.2l0,0l3-0.4l0.1,2l10.8,9.8l3.1,8l-1.5-0.1l-2.5,4.4h2.6l-2.2,3.2l0,4
		l2.2,2.8l-1.3,2.2l3,0l-3.2,6.1l3.7,8.5L276,128l-1.3-1.7l-2,0.5l-0.2,2.1l0,0l2.1,3.6l3.4,0.7l6.9-0.7l3.3-2.2l3.7,3l2-1l0.6,1.8
		l3.4-2.2l7.3,5.1l2.6-1.2l1.3,2.8l2.1-1.8l4.2,3l3.1-2.3l1.8,1.7l4.9-1.3l0.8,1.3l3.3-0.9l0.1-2l2.8,0.7l2.2,3.5l-1,2.4l4,4.6
		l1.7-0.6l1,2.6l1.6-1.3l0.6,3.6l3.2,2.2l1-0.9l0,0l8-10.2l-1.1-1.8l-2.7,0.4l2.2-2.5l-1.5-2.7l0.9-1.9l5.2-0.5l-3.9-3.4l-0.4-6.4
		l5.5-2.7l3,0.7l0.2-2.2l2.8-1.7l4.7,3l1.7-13.5l-2.3-3.3l3.8-0.7l0.5-2.9l5.1-5.1l-1.8-1.5l2-5.7l-0.9-5.8l0,0l-1.5,0.2L373.4,78.6
		z"/>
	<path id="FR-NOR" class="st0" d="M272.1,106.6L272.1,106.6l0-4l2.2-3.2h-2.6l2.5-4.4l1.5,0.1l-3.1-8L262,77.3l-0.1-2l-3,0.4l0,0
		l-12.2,8.4L226,89l-15.8,9.2l-5.9,12.8l4.1,3.8l5.4,0.2l-0.5,1.4l-6.5,1.8l-8.9,6.6l-5.6,1l-7.1-3.3l-15-1l-8.7-3.1l-4.5,0.5
		l-1.7,2.9l-1.6-1.2l-2,1.8l1.4-4.6l-5.9-9l3.3-3.8l-1.5-5.7l-8.6-0.1L138,102l-3.1-0.2l-13.8-4.4l-0.2,3.3l4.1,2.8l0.3,3.9l-2,2.4
		l3.2,10.3l4.3,2.8l3.9,7l1.5,13.8l0.9-1.7l0.3,5.9l-2.6,6.2l1.7,0.8l0.3,4.9l5,5.6l1.5-0.2l2.4,1.7l-9-0.1l0,0l3.5,9.1l2.8,1.8
		l2.8-0.5l4.2-4.7l7.6,2.2l0,0l9.3,0.6l3.5,4l1.9-0.9l-0.7-1.5l2.8-0.7l0.5,2.6l5.9-4l4.7-0.1l1.8,1.6l1.3-2.4l2.1,0.9l0.9-3.6
		l1.7,0l2.6,2.2l-1.2,1.1l1.1,3.4l4,0.4l0,4.8l2.1-1.4l2.4,1.2l3.6-5l6.5-1.5l3.4,3.5l0.4,6.4l4,0.7l1.9,3.8l4.3,1l0.6-1.9l3.5,4.7
		l2.5-0.4l0,0l1.4-1.2l-2.5-6.8l6-3.1l2.6-4.2l-1.7-2.3l1.3-2.9l-5-5.4l0,0l-1.6-3.4l2.3-1.5l0,0l0.5-1.7l6.6-0.8l1.2-1.9l2.2,0.7
		l0.3-2.7l8.8,1.8l1.7-1.3l-0.4-3.4l4.1-2.4l-0.5-3.3l2.2-1l0,0l0.7-2.4l-2,0.2l-0.9-4.9l1.7,0.2l0.9-2.2h4.7l3.4-9.2l0,0l0.2-2.1
		l2-0.5l1.3,1.7l0.6-1.8l-3.7-8.5l3.2-6.1l-3,0l1.3-2.2L272.1,106.6L272.1,106.6z"/>
	<path id="FR-PDL" class="st0" d="M108,265.6l1.6,1.1l-0.6,2.1l3.1,1.6l0.3,3.3l-2.4-3.8l-3.8-2l-0.3-2L108,265.6z M157.3,174.4
		l9.3,0.6l3.5,4l1.9-0.9l-0.7-1.5l2.8-0.7l0.5,2.6l5.9-4l4.7-0.1l1.8,1.6l1.3-2.4l2.1,0.9l0.9-3.6l1.7,0l2.6,2.2l-1.2,1.1l1.1,3.4
		l4,0.4l0,4.8l2.1-1.4l2.4,1.2l3.6-5l6.5-1.5l3.4,3.5l0.4,6.4l4,0.7l1.9,3.8l4.3,1l0.6-1.9l3.5,4.7l2.5-0.4l0,0l4.9,3.4l-2.7,0.3
		l-1.6,2.1l1.2,1.7l-2,0.1l0.1,2.1l1.9,0.5l0.3,5.5l-1.6,3.2l-2.1-0.8l0.3,4.2l-2.8,4l-4.8,3l1.4,1.5l-0.9,1.3l-6.1,3.2l-2.7-1.5
		l0,4.5l-6.3-2.1l-1.6,4l1.1,2.4L208,243l1.2,1.1l-4.4,6.1l-0.9,7.2l0,0l-2.6,0.2l-1.2,4.5l-2.1-0.9l-1.8,2.8l-2.1-1l1.5-2l-1.7-0.3
		l-8.8,1l-3.5,2.3l0.9-1.7l-1.5-0.1l-2.6,1.2l0.5,1.9l-2.3,2.2L169,267l-4.5,1.9l3.7,3.3l-1,2.2l5.5,4.5l-0.9,3.3l3.4,5.6l-0.9,1.6
		l1.8,0.9l-1.1,13.5l1.5-1l2.8,1.7l-7.6,5l-3.2-2.4l-5.5,1.9l-1.2-0.7l1.3-2.9l-7.7,3.3l0,0l-3.6,0.1l-0.2,2.7l-5.7-4.3l-5.2,0
		l-1.9-3.7l-5.6-1l-6.8-4.5l-1.8-7l-11.8-12.8l-0.4-4.1l1.7-0.2l5.5-8.3l-3.1-4l-8.1-2.3l3.4-2.2l-0.2-5.8l-5.3,1.9l-3.2-2.8
		l-2.3,1.2l-4.7-1.9l1.6-2.9l-2.2-2.2l4.2-4.5l0,0l1.4-1.8l4.4,1l0.8-3.4l5.6,1.6l0.3-2l2.5-0.7l0.7-7.2l4.5-2.7l0.8,1.4l3.9-2.3
		l8.3-0.1l1.6-3.3l6.2-2.4l-0.2-2l9.6,3.6l3.8-11.6l5.8-2.4l-3.5-16.3l2.3-3.9L157.3,174.4z"/>
	<path id="FR-PAC" class="st0" d="M423.4,489.3l1.3-4.6l-2.7-3.8l-3.3,1.9l-7.4,0.2l-3.3-5.7l-5.9-0.3l1.4,1.6l-1.6,0.2l0.5,1.2
		l1.8,1.1l-1.7,1.6l-10.6-1.9l0.3-3.5l-2.4-1.7l-12.6-0.5l0,0l0.4-2.2l9.1-5.2l0.4-1.3l-1.9-0.7l2.5-4.2l5.9,0.7l1.6-9.1l-1.1-1.3
		l8.4-7l-2.4-4.4l-2.7-0.9l0-6.1l-3-4.8l0,0l0-3.4l5.7,1l1.3,5l10-4.6l2,1.7l2.4-2.2l-0.6,4.8l8.4,1l1.2,3.4l3,2.1l3.6-0.8l2.5-3.4
		l1.7,1.1l1.8-1.4l0-4.1l-3.3-2.3l0.9-1.6l-5.6-0.2l-2.6-2.1l-0.5-2.9l3.3-0.7l-1.7-3.6l6.5,1.6l2.1-1.8L434,413l1.9-6.3l6.1-0.1
		l1.7-2.2l-1.3-0.9l1.2-3.1l5.2-0.1l1.2-1.2l-1.3-1.4l2.8-1.8l1.6,1.1l3.2-2.8l4.7,0.7l1.8-1.3l2.7,1.1l-1.3-8.4l-5-1l1.7-6.1
		l3.6-0.2l1.3,3.1l3.6,1.1l2.5-3.4l5,0l0,0l1.8,5.3l2.9,0.3l0.3,6.4l4.7,3.2l3-0.7l3.6,2.3l-0.9,2l3.2,6.2l-4.7,0.4l0.2,3.4
		l-4.7,5.2l3.9,5.7l-2.3,0.5l-0.2,3.4l5,7.3l7.5,2l7,5l13.6-3.4l0.9,7.6l-8.7,9.7l1.4,5.2l-8,4l-1,0.3l-6.6,3l-1.5,3.8l-1,0.9
		l-2.5,2l-3.1-0.4l-3,6.4l-6.1,0.3l-1.2,4.3l-5.9,4.3l5.1,0.3l-2.1,5.6l-3.6-1.2l-2.7,2.2l-4.6,0.4l-0.9,3.3l-7.3-1.6l-1.3,5
		l-2.5-0.1l1.2-2.8l-4.3,0.1l-4.1-2.6l-1.7,1.3l2.8,2l-5,1l-1.5-1.1l0.6-2.6l-4.7-1.6l-0.4-2.1l-2.7-0.4l-0.7,1.5l-2.8-3.1
		L423.4,489.3z"/>
</g>
</svg>
